HIERARCHY
ROOT Hips
{
  OFFSET -33.9132 29.2015 117.021
  CHANNELS 6 Xposition Yposition Zposition Zrotation Xrotation Yrotation
  JOINT LeftUpLeg
  {
    OFFSET 8.64259 1.95398 -2.38835
    CHANNELS 3 Zrotation Xrotation Yrotation
    JOINT LeftLeg
    {
      OFFSET 43.7702 0 0
      CHANNELS 3 Zrotation Xrotation Yrotation
      JOINT LeftFoot
      {
        OFFSET 40.6238 0 0
        CHANNELS 3 Zrotation Xrotation Yrotation
        JOINT LeftToeBase
        {
          OFFSET 12.7242 0 0
          CHANNELS 3 Zrotation Xrotation Yrotation
          End Site
          {
            OFFSET 0 0 0
          }
        }
      }
    }
  }
  JOINT RightUpLeg
  {
    OFFSET -8.2249 1.95398 -2.59336
    CHANNELS 3 Zrotation Xrotation Yrotation
    JOINT RightLeg
    {
      OFFSET 43.5653 0 0
      CHANNELS 3 Zrotation Xrotation Yrotation
      JOINT RightFoot
      {
        OFFSET 40.6238 0 0
        CHANNELS 3 Zrotation Xrotation Yrotation
        JOINT RightToeBase
        {
          OFFSET 12.7242 0 0
          CHANNELS 3 Zrotation Xrotation Yrotation
          End Site
          {
            OFFSET 0 0 0
          }
        }
      }
    }
  }
  JOINT Spine
  {
    OFFSET 0.165834 0.87714 6.61349
    CHANNELS 3 Zrotation Xrotation Yrotation
    JOINT Spine1
    {
      OFFSET 7.38963 1.71661e-005 0
      CHANNELS 3 Zrotation Xrotation Yrotation
      JOINT Spine2
      {
        OFFSET 11.9445 1.14441e-005 0
        CHANNELS 3 Zrotation Xrotation Yrotation
        JOINT Spine3
        {
          OFFSET 14.7254 4.19617e-005 0
          CHANNELS 3 Zrotation Xrotation Yrotation
          JOINT Spine4
          {
            OFFSET 10.9679 0 0
            CHANNELS 3 Zrotation Xrotation Yrotation
            JOINT RightShoulder
            {
              OFFSET 2.46616 -1.6653 3.69651
              CHANNELS 3 Zrotation Xrotation Yrotation
              JOINT RightArm
              {
                OFFSET 13.0012 0 0
                CHANNELS 3 Zrotation Xrotation Yrotation
                JOINT RightForeArm
                {
                  OFFSET 28.7848 1.62311e-005 0
                  CHANNELS 3 Zrotation Xrotation Yrotation
                  JOINT RightHand
                  {
                    OFFSET 26.5688 1.62095e-005 0
                    CHANNELS 3 Zrotation Xrotation Yrotation
                    End Site
                    {
                      OFFSET 0 0 0
                    }
                  }
                }
              }
            }
            JOINT LeftShoulder
            {
              OFFSET 2.38034 -1.29275 -3.7523
              CHANNELS 3 Zrotation Xrotation Yrotation
              JOINT LeftArm
              {
                OFFSET 16.3182 6.07031e-005 0
                CHANNELS 3 Zrotation Xrotation Yrotation
                JOINT LeftForeArm
                {
                  OFFSET 27.0901 0 0
                  CHANNELS 3 Zrotation Xrotation Yrotation
                  JOINT LeftHand
                  {
                    OFFSET 24.5451 1.51738e-005 0
                    CHANNELS 3 Zrotation Xrotation Yrotation
                    End Site
                    {
                      OFFSET 0 0 0
                    }
                  }
                }
              }
            }
            JOINT Neck
            {
              OFFSET 5.0226 -0.0266342 0
              CHANNELS 3 Zrotation Xrotation Yrotation
              JOINT Head
              {
                OFFSET 6.69364 2.86102e-005 0
                CHANNELS 3 Zrotation Xrotation Yrotation
                End Site
                {
                  OFFSET 0 0 0
                }
              }
            }
          }
        }
      }
    }
  }
}
MOTION
Frames:	9
Frame Time:	0.0416667
34.1838 101.09 19.4308 -150.413 -82.9637 -151.582 -173.702 -3.94793 89.7424 -11.8844 0.00329282 -0.279677 70.2392 6.31512 -2.2072 19.0773 -9.10996 8.16334 172.152 -3.00956 86.8947 -12.4775 -8.05718 -0.500066 66.6231 -4.10761 1.29003 27.0127 -0.0141425 3.13792 0.301991 7.43405 -89.9772 12.006 0.611218 -0.0209786 0.3352 0.609698 -0.0478537 -22.201 0.589258 0.163699 -2.18839 0.589264 0.163704 93.4751 -25.3356 -101.219 55.8683 1.63153 -6.58621 -5.0618 -38.3381 -5.31616 -14.9041 1.74325 -19.1515 -86.8581 -47.4986 83.0241 -27.511 -6.99091 -14.9371 -11.7559 26.3246 -0.0170772 2.45634 -0.0596195 -12.7376 5.51759 -1.88262 -2.37768 -6.37776 -1.50367 3.07509 
34.198 101.112 19.363 -150.917 -83.1854 -152.105 -173.875 -3.82491 89.6342 -11.7163 -0.146315 -0.137379 70.1714 6.09662 -2.67584 18.5832 -9.41415 8.17615 172.273 -2.93047 86.9762 -12.2834 -8.02127 -0.576825 66.3081 -3.94239 1.0594 26.5245 0.220552 3.04249 0.295266 7.40063 -90.0153 12.073 0.579762 -0.0942643 0.402149 0.575054 -0.119694 -22.134 0.581286 0.0843477 -2.12139 0.581287 0.0843369 93.6725 -24.9845 -100.904 56.0101 1.68476 -6.28232 -5.21791 -40.7843 -5.40147 -16.22 1.89065 -19.0727 -87.3634 -48.5907 82.436 -25.9788 -5.59896 -14.6799 -12.5409 23.872 -0.0167382 4.31673 -0.367472 -14.0393 4.74696 -1.98415 -1.64071 -5.36709 -1.71044 2.37363 
34.2316 101.101 19.3261 -150.5 -83.2831 -151.716 -173.99 -3.6392 89.5022 -11.8143 0.233546 -0.101534 70.0062 6.00633 -2.48576 17.7467 -9.66534 7.74882 172.258 -2.7619 86.936 -12.3319 -7.67853 -0.547123 66.4746 -3.96979 1.34924 26.3738 0.261418 3.13249 0.310394 7.41139 -90.0346 12.0516 0.600754 -0.134907 0.380823 0.59424 -0.161229 -22.1554 0.613523 0.0518897 -2.14279 0.613525 0.0518814 93.7949 -24.87 -100.674 55.3013 1.99012 -6.33552 -5.41542 -43.6591 -5.51982 -14.3509 1.82284 -20.358 -87.5185 -49.0086 82.2732 -25.9182 -6.24894 -15.0285 -12.335 24.3387 -0.0167993 3.47892 -0.283849 -14.3479 4.79063 -1.9913 -1.30004 -5.08821 -1.77165 2.31407 
34.2546 101.11 19.2896 -149.351 -83.2662 -150.636 -173.954 -3.63857 89.4506 -11.6981 -0.00931225 -0.195944 70.0228 6.00552 -2.67241 17.1282 -10.0499 7.76823 172.232 -2.65841 86.8618 -12.3566 -7.93003 -0.567851 66.5612 -4.0422 1.16609 26.0971 0.369657 3.17165 0.3181 7.4124 -89.9944 12.0495 0.635116 -0.0582628 0.37871 0.631927 -0.0861653 -22.1577 0.623254 0.13532 -2.14502 0.623257 0.135312 93.6596 -25.2262 -100.854 55.432 1.93479 -6.32322 -5.35292 -42.7747 -5.48155 -15.156 1.87051 -19.8866 -87.2012 -48.1914 82.6148 -26.8769 -6.88438 -15.0824 -11.9445 25.1273 -0.0169061 3.81991 -0.290392 -14.0097 4.76727 -1.98311 -1.54194 -5.17588 -1.72036 2.24056 
34.2667 101.11 19.2926 -149.263 -83.2908 -150.464 -173.912 -3.53954 89.5708 -11.828 -0.0937307 -0.188535 70.0095 5.91232 -2.93124 17.3873 -9.63079 7.3274 172.275 -2.68172 86.94 -12.2526 -7.87115 -0.553066 66.4129 -3.92995 1.3156 26.2918 0.304001 3.10493 0.314624 7.41284 -90.0042 12.0486 0.623579 -0.076554 0.377762 0.619608 -0.103941 -22.1586 0.617763 0.114409 -2.14591 0.617755 0.114404 93.6788 -25.1775 -100.827 55.4581 1.89329 -6.39979 -5.38609 -43.2464 -5.5016 -15.9282 1.86962 -19.1365 -87.0631 -48.1438 82.8187 -26.9899 -7.12278 -15.1681 -11.8248 25.8417 -0.0170069 3.79479 -0.301525 -14.3925 4.72922 -1.91895 -1.59243 -5.53097 -1.66169 2.48451 
34.2931 101.092 19.3189 -149.628 -83.2245 -150.747 -173.886 -3.61648 89.6006 -11.8309 0.349563 -0.197355 70.0609 6.09766 -2.28046 17.5582 -9.87896 7.91698 172.27 -2.78789 86.9788 -12.2409 -7.93267 -0.53264 66.3397 -3.91258 1.27428 26.5562 0.226231 2.96981 0.309203 7.43261 -90.0546 12.0091 0.589028 -0.173033 0.338303 0.580846 -0.198799 -22.1979 0.613802 0.0120038 -2.18528 0.613798 0.0119925 93.6853 -25.0183 -100.865 55.1987 1.98557 -6.47021 -5.32252 -42.3373 -5.46334 -14.7556 1.83514 -20.0223 -87.2349 -48.8486 82.677 -25.7176 -5.57658 -15.039 -12.6388 23.8128 -0.0167305 4.27828 -0.379137 -14.292 4.70544 -1.88816 -1.04811 -5.60154 -1.72418 2.19102 
34.3353 101.104 19.3453 -150.149 -83.403 -151.307 -173.859 -3.49629 89.6055 -11.8658 0.176229 -0.252783 70.1312 6.06203 -2.70928 17.2874 -9.78908 7.49201 172.243 -2.68941 86.9426 -12.2436 -7.83344 -0.515435 66.3968 -3.94983 1.19706 26.2942 0.29677 3.12983 0.319344 7.41985 -90.012 12.0346 0.629263 -0.0926811 0.363783 0.624573 -0.120288 -22.1726 0.628022 0.10074 -2.15992 0.628019 0.100729 93.7942 -25.4075 -100.504 55.5742 1.81393 -6.46703 -5.21153 -40.6892 -5.39863 -15.8811 1.92 -19.5618 -87.132 -47.9723 82.683 -27.1295 -7.279 -15.2681 -11.7177 26.088 -0.0170426 3.49869 -0.2751 -14.5789 4.7429 -2.02862 -1.55319 -5.84897 -1.77626 2.20873 
34.383 101.088 19.3753 -150.559 -83.3247 -151.582 -173.772 -3.36093 89.7287 -12.3121 0.332998 -0.26078 70.2957 6.11554 -2.59973 17.6732 -9.64639 7.64158 172.196 -2.92725 86.9769 -11.9384 -8.04751 -0.435159 66.0174 -3.73197 1.59069 27.0305 0.27546 2.00023 0.296433 7.42476 -90.0483 12.0249 0.566571 -0.158266 0.354092 0.559064 -0.183052 -22.1821 0.587946 0.0193315 -2.16941 0.587949 0.0193402 93.6045 -25.1066 -101.013 55.6963 1.81753 -6.31244 -5.18696 -40.314 -5.38483 -16.3532 1.97347 -19.4964 -87.0128 -48.2194 82.9085 -27.2537 -7.55618 -15.0473 -11.6004 25.9363 -0.0170206 3.75681 -0.292802 -14.2761 4.72766 -1.84238 -1.0024 -5.87422 -1.68067 1.75242 
34.4263 101.074 19.3944 -150.516 -83.5442 -151.76 -173.919 -3.28301 89.4586 -12.1138 0.323732 -0.268229 70.1686 6.14004 -2.48659 17.3494 -9.70681 7.41715 172.065 -2.56729 86.6905 -12.1618 -7.78672 -0.407824 66.12 -3.67293 2.02112 27.337 0.0891934 2.2015 0.271966 7.4049 -90.0164 12.0644 0.532988 -0.091131 0.393565 0.528461 -0.114503 -22.1425 0.535727 0.0732744 -2.12982 0.53573 0.0732685 93.4612 -25.2834 -101.266 55.3928 1.93119 -6.37937 -5.2521 -41.3019 -5.42202 -16.3469 1.95138 -19.3449 -86.9189 -48.2557 83.0592 -26.1222 -5.63305 -14.8279 -12.5117 23.7504 -0.0167225 3.99314 -0.333067 -14.0088 4.61837 -1.76789 -1.11062 -5.8074 -1.58835 1.76431 
